<svg width="141" height="32" viewBox="0 0 141 32" fill="none" xmlns="http://www.w3.org/2000/svg">
<g clip-path="url(#clip0_672_4891)">
<path d="M16.0625 0.0131329C24.8073 0.0650288 31.9821 7.22692 31.9173 16.1274C31.9045 17.9363 31.5871 19.6562 31.0281 21.2748C29.8364 19.9689 28.1367 19.1374 26.2528 19.0912L26.1274 19.0892C23.5932 19.0742 21.3951 20.4666 20.2454 22.5124C17.6439 22.7786 15.6127 24.9763 15.6127 27.6487L15.6131 27.7155C15.6349 29.4326 16.4949 30.9477 17.8027 31.8704C17.1986 31.9392 16.5835 31.9733 15.9587 31.9693C7.14912 32.0082 -0.03875 24.7945 0.000141827 15.9199C0.0390641 7.14916 7.201 -0.0387613 16.0625 0.0131329ZM21.7215 5.83503C20.2189 5.83542 19.1294 6.62494 18.2682 7.81076C17.3859 9.03043 16.9966 10.4576 16.5685 11.8718C16.4519 12.2864 16.3482 12.7011 16.2187 13.1544C14.6791 12.9345 13.1911 12.7145 11.6642 12.4945C11.6641 12.4952 11.664 12.4958 11.6639 12.4964C11.6597 12.4958 11.6554 12.4952 11.6512 12.4946C11.5993 12.9098 11.5474 13.299 11.4955 13.7142C13.0135 13.9478 14.4666 14.1683 15.9587 14.4019C15.7512 15.2575 15.5697 16.0483 15.3753 16.8521C13.9137 16.6453 12.5165 16.4513 11.1192 16.2573C11.1191 16.2578 11.119 16.2584 11.119 16.259C11.1148 16.2584 11.1105 16.2578 11.1063 16.2572C11.0544 16.7113 11.0024 17.0616 10.9505 17.4638C12.3647 17.6843 13.7271 17.892 15.0894 18.0995C15.0894 18.2552 15.1154 18.3461 15.0894 18.4239C14.6483 20.2793 14.2461 22.1605 13.7531 24.003C13.5195 24.8852 13.1433 25.7285 12.4166 26.3513C12.158 26.5706 11.8873 26.6801 11.6265 26.6822C11.2902 26.6804 10.971 26.4994 10.7169 26.1437C10.5094 25.8583 10.3407 25.5209 10.0683 25.3263C9.93383 25.2277 9.68175 25.1539 9.49167 25.1562C9.40102 25.1557 9.32319 25.1716 9.27683 25.2095C9.06929 25.3912 8.9135 25.7674 8.92651 26.0529C8.93951 26.2994 9.18607 26.5979 9.40665 26.7666C9.9282 27.1692 10.5207 27.3264 11.1342 27.3251C11.3948 27.3254 11.6593 27.2971 11.9237 27.2465C13.4158 26.9481 14.4666 26.014 15.1154 24.7035C15.6343 23.6786 16.0106 22.5757 16.3738 21.4728C16.6981 20.4745 16.9186 19.4501 17.1778 18.4129C18.6395 18.6327 20.0628 18.8397 21.5247 19.0466C21.5249 19.046 21.525 19.0454 21.5252 19.0448C21.5294 19.0454 21.5336 19.046 21.5377 19.0466C21.6675 18.6315 21.7713 18.2423 21.888 17.8401C20.3571 17.6066 18.891 17.3989 17.4249 17.1783C17.6065 16.3097 17.7619 15.5446 17.9304 14.702C19.3144 14.896 20.6726 15.09 22.0697 15.2841C22.0699 15.2835 22.07 15.2829 22.0702 15.2823C22.0744 15.2829 22.0785 15.2835 22.0827 15.2841C22.1994 14.8689 22.3032 14.5057 22.42 14.0905C20.9799 13.8829 19.6045 13.6752 18.1254 13.4546C18.6314 11.6901 19.0596 10.0034 19.5915 8.35565C19.7601 7.81079 20.1624 7.30478 20.5646 6.8767C20.7954 6.64023 21.0629 6.52844 21.3288 6.52734C21.6714 6.53058 22.0104 6.71734 22.2643 7.05822C22.4459 7.30478 22.6276 7.57724 22.8482 7.79779C23.0282 7.96972 23.2651 8.08992 23.4871 8.08686C23.6217 8.08789 23.7513 8.04445 23.8601 7.94054C24.0418 7.75887 24.1586 7.33076 24.0547 7.03232C23.964 6.7858 23.9121 6.75985 23.8083 6.64308C23.3023 6.07221 22.6276 5.86464 21.914 5.83866C21.8491 5.83602 21.7849 5.83481 21.7215 5.83503Z" fill="white"/>
<path d="M31.3892 31.8941C33.7339 31.8941 35.6345 29.9933 35.6345 27.6487C35.6345 25.3041 33.7324 23.4034 31.3878 23.4034H31.3464C30.4406 21.4055 28.4319 20.021 26.1218 20.0072C23.759 19.9931 21.7323 21.3973 20.8217 23.4034H20.7772C18.4325 23.4034 16.5304 25.3041 16.5304 27.6487C16.5304 29.9933 18.4311 31.8941 20.7758 31.8941H31.3892ZM33.9823 27.6487C33.9823 29.0809 32.8214 30.2418 31.3892 30.2418H20.7758C19.3436 30.2418 18.1827 29.0809 18.1827 27.6487L18.1835 27.5818C18.219 26.1813 19.3667 25.0556 20.7772 25.0556H21.8863L22.3263 24.0862C22.979 22.6481 24.4287 21.6494 26.1119 21.6594C27.7551 21.6692 29.1928 22.6548 29.8416 24.0856L30.2814 25.0556H31.3878C32.8206 25.0556 33.9823 26.2173 33.9823 27.6487Z" fill="white"/>
<path d="M107.109 16.8C107.109 15.5572 106.564 14.6498 105.162 14.6498C104.325 14.6498 103.001 15.1233 102.826 16.9184V22.9744H100.373V12.7167H102.748V14.1172C103.449 13.1704 104.5 12.4799 105.941 12.4799C108.277 12.4799 109.542 14.0975 109.542 16.5041V22.9744H107.109V16.8Z" fill="white"/>
<path d="M95.7678 22.9744V12.7167H98.2337V22.9744H95.7678ZM95.7678 11.0794V8.77139H98.2533V11.0794H95.7678Z" fill="white"/>
<path d="M89.0278 23.2111C85.7334 23.2111 83.8398 20.9031 83.8398 17.8455C83.8398 14.7879 85.7334 12.4799 89.0278 12.4799C92.3219 12.4799 94.2155 14.7879 94.2155 17.8455C94.2155 20.9031 92.3219 23.2111 89.0278 23.2111ZM86.3645 17.8455C86.3645 19.8182 87.193 21.1398 89.0278 21.1398C90.8623 21.1398 91.6908 19.8182 91.6908 17.8455C91.6908 15.8729 90.8623 14.5512 89.0278 14.5512C87.193 14.5512 86.3645 15.8729 86.3645 17.8455Z" fill="white"/>
<path d="M77.9868 23.2111C74.8503 23.2111 72.9566 20.9031 72.9566 17.8455C72.9566 14.7879 74.8503 12.4799 77.9868 12.4799C80.8077 12.4799 82.4251 14.0778 82.7409 16.3858H80.2553C80.0187 15.2416 79.2098 14.5512 77.9868 14.5512C76.3102 14.5512 75.4817 15.8729 75.4817 17.8455C75.4817 19.8182 76.3102 21.1398 77.9868 21.1398C79.2494 21.1398 80.0383 20.41 80.2553 19.1869H82.7409C82.4451 21.5541 80.7485 23.2111 77.9868 23.2111Z" fill="white"/>
<path d="M66.8456 23.2111C63.6694 23.2111 61.7758 20.9031 61.7758 17.8455C61.7758 14.7879 63.6694 12.4799 66.8456 12.4799C70.0213 12.4799 71.915 14.709 71.915 18.0428V18.6346H64.2417C64.4588 20.2324 65.366 21.2582 66.8456 21.2582C68.0486 21.2582 68.8575 20.7453 69.2915 19.8379H71.7179C71.0473 21.8697 69.2915 23.2111 66.8456 23.2111ZM64.2613 16.8592H69.4098C69.1533 15.36 68.2656 14.4328 66.8456 14.4328C65.4252 14.4328 64.5375 15.36 64.2613 16.8592Z" fill="white"/>
<path d="M56.3019 8.77139H58.7875V20.0944C58.7875 20.765 59.0241 21.061 59.7738 21.061H61.1151V22.9744H59.1424C57.4066 22.9744 56.3019 22.4221 56.3019 20.3508V8.77139Z" fill="white"/>
<path d="M51.5948 22.9744V12.7167H54.0604V22.9744H51.5948ZM51.5948 11.0794V8.77139H54.08V11.0794H51.5948Z" fill="white"/>
<path d="M40.0533 22.9744V8.77139H50.0742V11.1583H42.6967V14.5315H49.6997V16.8198H42.6967V22.9744H40.0533Z" fill="white"/>
<path d="M138.41 16.8C138.41 15.5573 137.857 14.6499 136.437 14.6499C135.589 14.6499 134.247 15.1233 134.07 16.9184V22.9744H131.584V12.7167H133.991V14.1173C134.701 13.1704 135.766 12.48 137.226 12.48C139.593 12.48 140.875 14.0975 140.875 16.5042V22.9744H138.41V16.8Z" fill="white"/>
<path d="M126.999 22.9743V12.7167H129.465V22.9743H126.999ZM126.999 11.0794V8.77139H129.485V11.0794H126.999Z" fill="white"/>
<path d="M114.193 22.9743V8.77139H120.17C123.622 8.77139 125.358 10.7638 125.358 13.3676C125.358 15.9518 123.622 17.9441 120.17 17.9441H116.836V22.9743H114.193ZM116.836 15.6361H120.032C121.827 15.6361 122.675 14.7879 122.675 13.3676C122.675 11.9473 121.827 11.0794 120.032 11.0794H116.836V15.6361Z" fill="white"/>
</g>
<defs>
<clipPath id="clip0_672_4891">
<rect width="140.9" height="32" fill="white"/>
</clipPath>
</defs>
</svg>
